<mxfile host="Electron" modified="2024-08-21T20:59:05.125Z" agent="Mozilla/5.0 (Windows NT 10.0; Win64; x64) AppleWebKit/537.36 (KHTML, like Gecko) draw.io/22.1.2 Chrome/114.0.5735.289 Electron/25.9.4 Safari/537.36" etag="j2X7PnkKUm2u6dvcAhka" version="22.1.2" type="device">
  <diagram name="Page-1" id="IB07Za0niyhtIeoai6F3">
    <mxGraphModel dx="1050" dy="669" grid="1" gridSize="10" guides="1" tooltips="1" connect="1" arrows="1" fold="1" page="1" pageScale="1" pageWidth="1920" pageHeight="1200" math="0" shadow="0">
      <root>
        <mxCell id="0" />
        <mxCell id="1" parent="0" />
        <mxCell id="Hd2P5T0UxJoIXj2JMx9s-21" style="edgeStyle=orthogonalEdgeStyle;rounded=0;orthogonalLoop=1;jettySize=auto;html=1;entryX=0.5;entryY=0;entryDx=0;entryDy=0;" edge="1" parent="1" source="Hd2P5T0UxJoIXj2JMx9s-1" target="Hd2P5T0UxJoIXj2JMx9s-6">
          <mxGeometry relative="1" as="geometry" />
        </mxCell>
        <mxCell id="Hd2P5T0UxJoIXj2JMx9s-1" value="Sentinel Node" style="ellipse;whiteSpace=wrap;html=1;aspect=fixed;" vertex="1" parent="1">
          <mxGeometry x="920" y="320" width="80" height="80" as="geometry" />
        </mxCell>
        <mxCell id="Hd2P5T0UxJoIXj2JMx9s-22" style="edgeStyle=orthogonalEdgeStyle;rounded=1;orthogonalLoop=1;jettySize=auto;html=1;entryX=1;entryY=0.5;entryDx=0;entryDy=0;" edge="1" parent="1" source="Hd2P5T0UxJoIXj2JMx9s-6" target="Hd2P5T0UxJoIXj2JMx9s-9">
          <mxGeometry relative="1" as="geometry">
            <Array as="points">
              <mxPoint x="960" y="530" />
              <mxPoint x="770" y="530" />
              <mxPoint x="770" y="600" />
            </Array>
          </mxGeometry>
        </mxCell>
        <mxCell id="Hd2P5T0UxJoIXj2JMx9s-23" style="edgeStyle=orthogonalEdgeStyle;rounded=1;orthogonalLoop=1;jettySize=auto;html=1;entryX=0.5;entryY=0;entryDx=0;entryDy=0;" edge="1" parent="1" source="Hd2P5T0UxJoIXj2JMx9s-6" target="Hd2P5T0UxJoIXj2JMx9s-10">
          <mxGeometry relative="1" as="geometry" />
        </mxCell>
        <mxCell id="Hd2P5T0UxJoIXj2JMx9s-24" style="edgeStyle=orthogonalEdgeStyle;rounded=1;orthogonalLoop=1;jettySize=auto;html=1;entryX=0.5;entryY=0;entryDx=0;entryDy=0;" edge="1" parent="1" source="Hd2P5T0UxJoIXj2JMx9s-6" target="Hd2P5T0UxJoIXj2JMx9s-14">
          <mxGeometry relative="1" as="geometry" />
        </mxCell>
        <mxCell id="Hd2P5T0UxJoIXj2JMx9s-25" style="edgeStyle=orthogonalEdgeStyle;rounded=1;orthogonalLoop=1;jettySize=auto;html=1;entryX=0.5;entryY=0;entryDx=0;entryDy=0;" edge="1" parent="1" source="Hd2P5T0UxJoIXj2JMx9s-6" target="Hd2P5T0UxJoIXj2JMx9s-17">
          <mxGeometry relative="1" as="geometry" />
        </mxCell>
        <mxCell id="Hd2P5T0UxJoIXj2JMx9s-31" style="edgeStyle=orthogonalEdgeStyle;shape=connector;rounded=1;orthogonalLoop=1;jettySize=auto;html=1;entryX=1;entryY=0.5;entryDx=0;entryDy=0;labelBackgroundColor=default;strokeColor=default;align=center;verticalAlign=middle;fontFamily=Helvetica;fontSize=11;fontColor=default;endArrow=classic;" edge="1" parent="1" source="Hd2P5T0UxJoIXj2JMx9s-6" target="Hd2P5T0UxJoIXj2JMx9s-30">
          <mxGeometry relative="1" as="geometry">
            <Array as="points">
              <mxPoint x="960" y="600" />
            </Array>
          </mxGeometry>
        </mxCell>
        <mxCell id="Hd2P5T0UxJoIXj2JMx9s-6" value="Truck" style="rounded=1;whiteSpace=wrap;html=1;" vertex="1" parent="1">
          <mxGeometry x="930" y="450" width="60" height="60" as="geometry" />
        </mxCell>
        <mxCell id="Hd2P5T0UxJoIXj2JMx9s-8" style="edgeStyle=orthogonalEdgeStyle;rounded=0;orthogonalLoop=1;jettySize=auto;html=1;entryX=0;entryY=0.5;entryDx=0;entryDy=0;" edge="1" parent="1" source="Hd2P5T0UxJoIXj2JMx9s-7" target="Hd2P5T0UxJoIXj2JMx9s-6">
          <mxGeometry relative="1" as="geometry" />
        </mxCell>
        <mxCell id="Hd2P5T0UxJoIXj2JMx9s-7" value="Transform&lt;br&gt;3D" style="rhombus;whiteSpace=wrap;html=1;" vertex="1" parent="1">
          <mxGeometry x="790" y="440" width="80" height="80" as="geometry" />
        </mxCell>
        <mxCell id="Hd2P5T0UxJoIXj2JMx9s-9" value="Sprite&lt;br&gt;Sheet" style="rounded=1;whiteSpace=wrap;html=1;" vertex="1" parent="1">
          <mxGeometry x="680" y="570" width="60" height="60" as="geometry" />
        </mxCell>
        <mxCell id="Hd2P5T0UxJoIXj2JMx9s-26" style="edgeStyle=orthogonalEdgeStyle;rounded=1;orthogonalLoop=1;jettySize=auto;html=1;entryX=0.5;entryY=0;entryDx=0;entryDy=0;" edge="1" parent="1" source="Hd2P5T0UxJoIXj2JMx9s-10" target="Hd2P5T0UxJoIXj2JMx9s-20">
          <mxGeometry relative="1" as="geometry">
            <Array as="points">
              <mxPoint x="1190" y="700" />
              <mxPoint x="1380" y="700" />
            </Array>
          </mxGeometry>
        </mxCell>
        <mxCell id="Hd2P5T0UxJoIXj2JMx9s-10" value="Soldier" style="rounded=1;whiteSpace=wrap;html=1;" vertex="1" parent="1">
          <mxGeometry x="1160" y="570" width="60" height="60" as="geometry" />
        </mxCell>
        <mxCell id="Hd2P5T0UxJoIXj2JMx9s-13" style="edgeStyle=orthogonalEdgeStyle;rounded=1;orthogonalLoop=1;jettySize=auto;html=1;entryX=0;entryY=0.5;entryDx=0;entryDy=0;" edge="1" parent="1" source="Hd2P5T0UxJoIXj2JMx9s-11" target="Hd2P5T0UxJoIXj2JMx9s-10">
          <mxGeometry relative="1" as="geometry" />
        </mxCell>
        <mxCell id="Hd2P5T0UxJoIXj2JMx9s-11" value="Transform&lt;br&gt;3D" style="rhombus;whiteSpace=wrap;html=1;" vertex="1" parent="1">
          <mxGeometry x="1070" y="560" width="80" height="80" as="geometry" />
        </mxCell>
        <mxCell id="Hd2P5T0UxJoIXj2JMx9s-27" style="edgeStyle=orthogonalEdgeStyle;rounded=1;orthogonalLoop=1;jettySize=auto;html=1;entryX=0.5;entryY=0;entryDx=0;entryDy=0;" edge="1" parent="1" source="Hd2P5T0UxJoIXj2JMx9s-14" target="Hd2P5T0UxJoIXj2JMx9s-20">
          <mxGeometry relative="1" as="geometry" />
        </mxCell>
        <mxCell id="Hd2P5T0UxJoIXj2JMx9s-14" value="Soldier" style="rounded=1;whiteSpace=wrap;html=1;" vertex="1" parent="1">
          <mxGeometry x="1350" y="570" width="60" height="60" as="geometry" />
        </mxCell>
        <mxCell id="Hd2P5T0UxJoIXj2JMx9s-15" style="edgeStyle=orthogonalEdgeStyle;rounded=1;orthogonalLoop=1;jettySize=auto;html=1;entryX=0;entryY=0.5;entryDx=0;entryDy=0;" edge="1" parent="1" source="Hd2P5T0UxJoIXj2JMx9s-16" target="Hd2P5T0UxJoIXj2JMx9s-14">
          <mxGeometry relative="1" as="geometry" />
        </mxCell>
        <mxCell id="Hd2P5T0UxJoIXj2JMx9s-16" value="Transform&lt;br&gt;3D" style="rhombus;whiteSpace=wrap;html=1;" vertex="1" parent="1">
          <mxGeometry x="1260" y="560" width="80" height="80" as="geometry" />
        </mxCell>
        <mxCell id="Hd2P5T0UxJoIXj2JMx9s-28" style="edgeStyle=orthogonalEdgeStyle;rounded=1;orthogonalLoop=1;jettySize=auto;html=1;entryX=0.5;entryY=0;entryDx=0;entryDy=0;" edge="1" parent="1" source="Hd2P5T0UxJoIXj2JMx9s-17" target="Hd2P5T0UxJoIXj2JMx9s-20">
          <mxGeometry relative="1" as="geometry">
            <Array as="points">
              <mxPoint x="1570" y="700" />
              <mxPoint x="1380" y="700" />
            </Array>
          </mxGeometry>
        </mxCell>
        <mxCell id="Hd2P5T0UxJoIXj2JMx9s-17" value="Soldier" style="rounded=1;whiteSpace=wrap;html=1;" vertex="1" parent="1">
          <mxGeometry x="1540" y="570" width="60" height="60" as="geometry" />
        </mxCell>
        <mxCell id="Hd2P5T0UxJoIXj2JMx9s-18" style="edgeStyle=orthogonalEdgeStyle;rounded=1;orthogonalLoop=1;jettySize=auto;html=1;entryX=0;entryY=0.5;entryDx=0;entryDy=0;" edge="1" parent="1" source="Hd2P5T0UxJoIXj2JMx9s-19" target="Hd2P5T0UxJoIXj2JMx9s-17">
          <mxGeometry relative="1" as="geometry" />
        </mxCell>
        <mxCell id="Hd2P5T0UxJoIXj2JMx9s-19" value="Transform&lt;br&gt;3D" style="rhombus;whiteSpace=wrap;html=1;" vertex="1" parent="1">
          <mxGeometry x="1450" y="560" width="80" height="80" as="geometry" />
        </mxCell>
        <mxCell id="Hd2P5T0UxJoIXj2JMx9s-20" value="Sprite&lt;br&gt;Sheet" style="rounded=1;whiteSpace=wrap;html=1;" vertex="1" parent="1">
          <mxGeometry x="1350" y="740" width="60" height="60" as="geometry" />
        </mxCell>
        <mxCell id="Hd2P5T0UxJoIXj2JMx9s-30" value="Audio Source" style="rounded=1;whiteSpace=wrap;html=1;" vertex="1" parent="1">
          <mxGeometry x="830" y="570" width="60" height="60" as="geometry" />
        </mxCell>
        <mxCell id="Hd2P5T0UxJoIXj2JMx9s-33" style="edgeStyle=orthogonalEdgeStyle;shape=connector;rounded=1;orthogonalLoop=1;jettySize=auto;html=1;entryX=0;entryY=0.5;entryDx=0;entryDy=0;labelBackgroundColor=default;strokeColor=default;align=center;verticalAlign=middle;fontFamily=Helvetica;fontSize=11;fontColor=default;endArrow=classic;" edge="1" parent="1" source="Hd2P5T0UxJoIXj2JMx9s-32" target="Hd2P5T0UxJoIXj2JMx9s-20">
          <mxGeometry relative="1" as="geometry" />
        </mxCell>
        <mxCell id="Hd2P5T0UxJoIXj2JMx9s-32" value="Transform&lt;br&gt;3D" style="rhombus;whiteSpace=wrap;html=1;" vertex="1" parent="1">
          <mxGeometry x="1240" y="730" width="80" height="80" as="geometry" />
        </mxCell>
      </root>
    </mxGraphModel>
  </diagram>
</mxfile>
